<?xml version="1.0" encoding="UTF-8"?><svg xmlns="http://www.w3.org/2000/svg" xmlns:xlink="http://www.w3.org/1999/xlink" viewBox="0 0 1221 764.35"><defs><style>.cls-1{fill:url(#radial-gradient-3);stroke-width:2px;}.cls-1,.cls-2,.cls-3,.cls-4,.cls-5,.cls-6{stroke:#000;stroke-miterlimit:10;}.cls-2{fill:url(#linear-gradient-3);}.cls-2,.cls-4,.cls-6{stroke-width:.5px;}.cls-7{fill:#ffffd7;}.cls-8{fill:url(#radial-gradient-4);}.cls-9{fill:url(#radial-gradient-2);}.cls-3{fill:url(#radial-gradient);stroke-width:.75px;}.cls-4{fill:url(#linear-gradient-4);}.cls-5{fill:url(#linear-gradient-2);stroke-width:3px;}.cls-10{fill:url(#linear-gradient);}.cls-6{fill:none;}</style><linearGradient id="linear-gradient" x1="841.5" y1="425" x2="1203.69" y2="425" gradientTransform="matrix(1, 0, 0, 1, 0, 0)" gradientUnits="userSpaceOnUse"><stop offset=".97" stop-color="#ffdc86"/><stop offset="1" stop-color="#b0955a"/></linearGradient><radialGradient id="radial-gradient" cx="1011.35" cy="424.75" fx="1011.35" fy="424.75" r="197.64" gradientTransform="matrix(1, 0, 0, 1, 0, 0)" gradientUnits="userSpaceOnUse"><stop offset=".1" stop-color="#fee48e"/><stop offset=".44" stop-color="#fce28c"/><stop offset=".56" stop-color="#f5dc89"/><stop offset=".64" stop-color="#e9d182"/><stop offset=".71" stop-color="#d8c279"/><stop offset=".77" stop-color="#c2ae6c"/><stop offset=".83" stop-color="#a7965d"/><stop offset=".87" stop-color="#86794b"/><stop offset=".92" stop-color="#615736"/><stop offset=".96" stop-color="#36301e"/><stop offset=".99" stop-color="#080704"/><stop offset="1" stop-color="#000"/></radialGradient><radialGradient id="radial-gradient-2" cx="504" cy="387" fx="504" fy="387" r="362" gradientTransform="matrix(1, 0, 0, 1, 0, 0)" gradientUnits="userSpaceOnUse"><stop offset=".97" stop-color="#ffdc86"/><stop offset="1" stop-color="#b0955a"/></radialGradient><radialGradient id="radial-gradient-3" cx="504.5" cy="386.5" fx="504.5" fy="386.5" r="347.5" gradientTransform="matrix(1, 0, 0, 1, 0, 0)" gradientUnits="userSpaceOnUse"><stop offset=".67" stop-color="#fee48e"/><stop offset=".79" stop-color="#fce28c"/><stop offset=".84" stop-color="#f5dc89"/><stop offset=".87" stop-color="#e9d182"/><stop offset=".89" stop-color="#d8c279"/><stop offset=".92" stop-color="#c2ae6c"/><stop offset=".94" stop-color="#a7965d"/><stop offset=".95" stop-color="#86794b"/><stop offset=".97" stop-color="#615736"/><stop offset=".98" stop-color="#36301e"/><stop offset="1" stop-color="#080704"/><stop offset="1" stop-color="#000"/></radialGradient><radialGradient id="radial-gradient-4" fx="361.14" fy="186.12" r="246.5" xlink:href="#radial-gradient-2"/><linearGradient id="linear-gradient-2" x1="266" y1="386.5" x2="743" y2="386.5" gradientTransform="matrix(1, 0, 0, 1, 0, 0)" gradientUnits="userSpaceOnUse"><stop offset="0" stop-color="#fcfdf5"/><stop offset="0" stop-color="#fcfdf2" stop-opacity=".97"/><stop offset=".05" stop-color="#fcfddf" stop-opacity=".79"/><stop offset=".09" stop-color="#fcfdce" stop-opacity=".62"/><stop offset=".14" stop-color="#fcfdbf" stop-opacity=".47"/><stop offset=".2" stop-color="#fcfdb2" stop-opacity=".34"/><stop offset=".25" stop-color="#fcfda7" stop-opacity=".23"/><stop offset=".32" stop-color="#fcfd9e" stop-opacity=".15"/><stop offset=".4" stop-color="#fcfd98" stop-opacity=".08"/><stop offset=".49" stop-color="#fcfd93" stop-opacity=".03"/><stop offset=".63" stop-color="#fcfd90" stop-opacity="0"/><stop offset="1" stop-color="#fcfd90" stop-opacity="0"/></linearGradient><linearGradient id="linear-gradient-3" x1="266.5" y1="277" x2="711.08" y2="277" gradientTransform="matrix(1, 0, 0, 1, 0, 0)" gradientUnits="userSpaceOnUse"><stop offset="0" stop-color="#fcfdf5"/><stop offset="1" stop-color="#fcfd90"/></linearGradient><linearGradient id="linear-gradient-4" x1="267.5" y1="511" y2="511" xlink:href="#linear-gradient-3"/></defs><g id="Layer_1"><g id="Layer_1_copy_3"><g id="Layer_8_copy"><path class="cls-10" d="M861.5,340.5l342.19-9c-36.61,35.15-91.62,80.49-166.68,119.37-75.87,39.3-145.37,58.08-195.51,67.63"/></g><g id="Layer_8"><path class="cls-3" d="M863.86,347.5l314.64-9c-33.75,32.56-84.89,74.9-155,111-69.63,35.86-133.37,52.89-179.3,61.5"/></g><g id="Layer_1_copy_2"><circle class="cls-9" cx="504" cy="387" r="362"/></g><g id="Layer_1_copy"><circle class="cls-1" cx="504.5" cy="386.5" r="347.5"/></g><g><path class="cls-8" d="M504,633.5c-65.84,0-127.74-25.64-174.3-72.2s-72.2-108.46-72.2-174.3,25.64-127.74,72.2-174.3,108.46-72.2,174.3-72.2,127.74,25.64,174.3,72.2,72.2,108.46,72.2,174.3-25.64,127.74-72.2,174.3-108.46,72.2-174.3,72.2Z"/><path d="M504,141c33.21,0,65.43,6.5,95.75,19.33,29.29,12.39,55.6,30.13,78.19,52.72,22.59,22.59,40.33,48.9,52.72,78.19,12.83,30.33,19.33,62.54,19.33,95.75s-6.5,65.43-19.33,95.75c-12.39,29.29-30.13,55.6-52.72,78.19-22.59,22.59-48.9,40.33-78.19,52.72-30.33,12.83-62.54,19.33-95.75,19.33s-65.43-6.5-95.75-19.33c-29.29-12.39-55.6-30.13-78.19-52.72-22.59-22.59-40.33-48.9-52.72-78.19-12.83-30.33-19.33-62.54-19.33-95.75s6.5-65.43,19.33-95.75c12.39-29.29,30.13-55.6,52.72-78.19,22.59-22.59,48.9-40.33,78.19-52.72,30.33-12.83,62.54-19.33,95.75-19.33m0-1c-136.41,0-247,110.59-247,247s110.59,247,247,247,247-110.59,247-247-110.59-247-247-247h0Z"/></g></g><circle class="cls-5" cx="504.5" cy="386.5" r="238.5"/></g><g id="Layer_6"><path class="cls-2" d="M498.5,259.5c-10.39,.27-23.37,.28-39,6-17.55,6.42-29.44,16.5-36,23-8.2,7.96-20.7,22.08-30,43-9.29,20.88-11.41,39.59-11.84,51-38.39-.67-76.77-1.33-115.16-2,4.33-12.33,8.67-24.67,13-37,18.67,.33,37.33,.67,56,1l3-33-28-23,25-40,33,13,26-21-14-36,37-17,21,27,39-7,4-36h44.56l3.44,35,42,11,23-27,41,23-19,32.73,23,24.27,35-12,18,31-30.31,22,6.31,28h38.07c-1.39,6.89-2.36,17.62,1.93,29,.77,2.05,1.65,3.94,2.58,5.67h-83.48c-1.02-12.22-5.51-45.95-32.09-74.67-4.14-4.47-19.73-20.62-46-31-21.19-8.37-39.94-9.29-51-9Z"/><path class="cls-6" d="M740.5,368.5h0Z"/><path class="cls-6" d="M708.5,368.5l2.58,5.67c10.54,0,21.07,0,31.61,0"/></g><g id="Layer_6_copy"><path class="cls-4" d="M510,528.5c10.39-.27,23.37-.28,39-6,17.55-6.42,29.44-16.5,36-23,8.2-7.96,20.7-22.08,30-43,9.29-20.88,11.41-39.59,11.84-51h84.16c-1.6,4.16-3.68,11.16-3.5,20,.16,7.82,2.04,14.05,3.58,18h-38.08l-3,33,28,23-25,40-33-13-26,21,14,36-37,17-21-27-39,7-4,36h-44.56l-3.44-35-42-11-23,27-41-23,19-32.73-23-24.27-35,12-18-31,30.31-22-6.31-28h-53.5c-6.33-12.67-12.67-25.33-19-38,37.8,1.11,75.6,2.22,113.4,3.33,1.02,12.22,5.51,45.95,32.09,74.67,4.14,4.47,19.73,20.62,46,31,21.19,8.37,39.94,9.29,51,9Z"/><line class="cls-6" x1="741.5" y1="405.5" x2="711" y2="405.5"/><line class="cls-6" x1="709.14" y1="411.34" x2="741.5" y2="411.34"/></g><g id="Layer_10"><g><path class="cls-7" d="M227.32,273.31c20.46,15.05,16.77,45.84,9.83,67.63-5.55,17.41-21.22,49.08-44.14,42.08-27.31-8.34-22.62-53.56-15.19-73.76,6.6-17.97,25.99-53.24,49.5-35.94Zm-30.58,91.61c16.79,5.49,29.86-13.97,34.56-27.83,5.28-15.58,4.98-38.59-10.3-48.81-18.38-12.3-33,11.97-37.33,24.81-4.97,14.75-7.5,45.11,13.07,51.83Z"/><path class="cls-7" d="M253.65,272.6c4.76-3.98,10.54-10.58,15.38-18.12,4.47-6.96,9.79-19.04,3.57-26.17-4.08-4.67-10.34-2.92-20.82,7.05-6.73,6.41-20.55,21.2-29.64,13.79-12.17-9.92-.85-34.65,5.94-45.87,6.2-10.25,13.14-16.24,17.44-19.09,.95,3.51,1.44,5.26,2.44,8.74-3.06,2.12-9.01,7.15-14.93,15.92-4.93,7.3-9.7,19.66-4.16,25.99,3.6,4.11,10.62-1.07,21.61-10.56,6.97-6.01,20.6-18.23,29.7-7.39,10.09,12.03,.82,32.22-6.28,43.31-5.12,7.98-11.69,16.47-16.14,19.98-1.66-3.01-2.48-4.53-4.1-7.59Z"/><path class="cls-7" d="M346.55,138.45c-5.17-9.07-10.35-18.26-14.76-27.73-.15,.1-.23,.16-.38,.26,.82,10.72,1.36,21.46,1.95,32.19,.77,13.74,2.06,27.45,3.85,41.09-2.71,2.25-4.05,3.41-6.71,5.76-9.82-6.38-19.61-12.32-29.82-18.07-8.23-4.41-16.55-8.87-24.43-13.9-.09,.1-.14,.14-.23,.24,5.88,8.8,11.54,17.78,17.05,26.81,5.35,8.82,10.77,17.59,16.26,26.32-3.11,3.39-4.64,5.13-7.66,8.68-13.21-20.1-26.08-40.38-38.65-60.88,5-5.63,7.55-8.36,12.74-13.63,11,4.83,21.75,10.23,32.2,16.16,7.81,4.64,14.38,9.26,19.99,14.16,.13-.11,.19-.16,.32-.27-1.91-7.79-3.29-16.84-4.26-27.58-.93-14.07-1.47-28.08-1.64-42.17,5.76-4.07,8.68-6.02,14.58-9.74,11.77,21.28,23.23,42.71,34.42,64.3-3.75,2.26-5.61,3.43-9.29,5.86-5.11-9.32-10.3-18.61-15.55-27.86Z"/><path class="cls-7" d="M396.85,69.28c-3.95,7.37-5.82,11.09-9.35,18.57l.06,.21c7.91-4.32,11.93-6.33,20.08-10.05l1.8,7.35c-8.4,2.03-12.59,3.2-20.91,5.88l.06,.21c6.69,2.9,9.96,4.45,16.37,7.73-2.89,2.77-4.32,4.18-7.11,7.03-4.82-4.71-7.29-7.01-12.33-11.51l-.27,.12c-1.58,7.47-2.29,11.21-3.57,18.68-3.39-.12-5.1-.15-8.53-.16,2.97-7.51,4.56-11.26,7.94-18.69l-.07-.21c-7.61,4.4-11.36,6.74-18.7,11.7l-2.69-6.96c8.04-3.45,12.09-5.02,20.24-7.83l-.07-.21c-6.72-2.81-10.14-4.12-17.12-6.53,2.81-3.16,4.23-4.72,7.13-7.81,5.42,4.16,8.08,6.3,13.29,10.68l.27-.12c1.45-7.36,2.25-11.05,3.98-18.41,3.82,.07,5.73,.14,9.51,.33Z"/><path class="cls-7" d="M456.79,53.56c-4.94,6.45-7.31,9.73-11.85,16.37l.03,.22c8.38-2.63,12.62-3.79,21.17-5.81,.29,3.04,.43,4.56,.71,7.61-8.54,.29-12.83,.6-21.39,1.53l.03,.22c6.15,4.22,9.14,6.42,14.97,10.96-3.24,2.14-4.84,3.24-8,5.47-4.06-5.62-6.15-8.39-10.46-13.86l-.28,.06c-2.62,7.03-3.86,10.56-6.18,17.64-3.31-.82-4.98-1.21-8.34-1.93,3.99-6.77,6.08-10.12,10.47-16.74l-.04-.22c-8.1,2.76-12.11,4.29-20.02,7.62-.66-2.96-.99-4.44-1.65-7.4,8.38-1.71,12.58-2.41,20.97-3.5l-.04-.22c-6.19-4.15-9.36-6.15-15.86-9.97,3.2-2.52,4.83-3.76,8.12-6.2,4.73,5.21,7.03,7.86,11.51,13.25,.11-.02,.17-.04,.28-.06,2.48-6.95,3.79-10.41,6.55-17.31,3.74,.85,5.6,1.3,9.3,2.27Z"/><path class="cls-7" d="M518.03,50.13c-5.8,5.37-8.6,8.13-14.03,13.77v.23c8.63-.91,12.97-1.22,21.68-1.5-.16,3.06-.24,4.58-.39,7.64-8.46-1.41-12.72-1.97-21.28-2.77v.23c5.45,5.39,8.08,8.15,13.16,13.79-3.5,1.47-5.23,2.23-8.67,3.8-3.19-6.35-4.85-9.5-8.3-15.75h-.28c-3.59,6.41-5.32,9.64-8.62,16.15-3.14-1.47-4.73-2.19-7.93-3.57,4.9-5.87,7.44-8.75,12.71-14.4v-.22c-8.38,1.1-12.54,1.79-20.8,3.48l-.55-7.62c8.48,0,12.71,.16,21.13,.77v-.22c-5.5-5.33-8.33-7.94-14.18-13,3.51-1.84,5.29-2.74,8.88-4.47,3.9,6.09,5.79,9.16,9.42,15.36h.29c3.44-6.36,5.23-9.51,8.94-15.75,3.56,1.58,5.33,2.4,8.83,4.09Z"/><path class="cls-7" d="M551.69,103.37c-4.82,8.8-7.12,13.25-11.5,22.24-4.37-.62-6.57-.88-10.96-1.31,11.55-24.46,24.46-47.66,39.15-70.37,6.16,1.3,9.23,2.03,15.34,3.65,6.11,27.43,10.47,54.87,13.09,82.85-4.34-1.68-6.53-2.47-10.91-3.95-1.18-10.32-1.89-15.49-3.57-25.84-9.97-3.04-20.37-5.51-30.64-7.26Zm29.9-.84c-1.66-9.47-2.6-14.21-4.68-23.68-1.18-5.37-1.82-10.12-2.52-14.76l-.29-.07c-2.18,4.08-4.48,8.25-7,12.39-5.02,7.83-7.44,11.8-12.08,19.82,10.7,1.99,16.03,3.25,26.56,6.29Z"/><path class="cls-7" d="M628.84,155.39c.86-2.21,1.29-3.31,2.16-5.52,4.21-1,6.34-1.46,10.64-2.27,12.71-2.05,37.17-1.57,44.32-13.98,5.02-8.71-2.29-18.94-9.86-23.77-7.51-4.79-15.3-5.93-20.24-5.66-.43-3.36-.65-5.03-1.14-8.4,8.91-.72,20.21,3.77,27.11,8.47,10.47,7.14,22.63,23.3,15.18,36.69-7.47,13.41-30.55,12.55-43.25,14.04-3.22,.33-4.82,.52-8,.97l-.09,.2c11.05,6.98,21.61,14.75,31.59,23.2-1.58,2.7-2.37,4.04-3.96,6.74-14.17-11.48-28.69-21.54-44.47-30.71Z"/><path class="cls-7" d="M746.21,215.21c-12.97,14.01-31.06,15.59-44,.75-12.66-14.52-11.14-35.21-1.5-50.94,11.2-18.28,31.63-19.49,45.55-3.45,13.76,15.86,14.39,38.05-.04,53.64Zm-36.05-40.97c-7.23,10.72-12.18,26.02-3.15,36.6,8.96,10.51,23.34,2.23,30.55-6.51,8.81-10.7,13.95-26.16,3.79-37.76-10.23-11.69-24.02-2.95-31.19,7.67Z"/><path class="cls-7" d="M788.17,237.89c-.07-.13-.1-.19-.17-.32-5.8-5.57-8.74-8.2-14.66-13.19,1.37-2.85,2.05-4.28,3.39-7.15,7.55,6.35,11.29,9.75,18.65,17.03,2.64,4.86,3.94,7.34,6.46,12.36-17.11,13.06-34.23,26.12-51.34,39.18-2.37-4.71-3.58-7.03-6.08-11.57,14.59-12.12,29.17-24.23,43.76-36.35Z"/><path class="cls-7" d="M816.08,382.99c-21.13,6.2-35.17-11.36-40.4-29.59-5.37-18.71-.99-39.68,16.5-50.51,21.13-13.07,37.55,7.98,42.86,26.7,5.46,19.25,3.93,46.68-18.96,53.4Zm-18.47-65.03c-11.7,6.42-20.06,20.15-15.74,33.65,4.15,12.99,17.32,19.3,30.17,14.42,13.92-5.29,21.14-20.52,16.77-34.83-4.4-14.4-17.89-20.55-31.2-13.25Z"/></g></g></svg>